// Created by Crowbar 0.74
version 1
nodes
  0 "v_weaponizer_root" -1
  1 "v_weaponizer_handle" 0
end
skeleton
  time 0
    0 0.000000 0.000000 0.000000 1.570795 0.001728 1.569068
    1 -26.508129 -12.130450 -15.723136 -3.157694 -0.037044 -3.217950
  time 1
    0 0.000000 0.000000 0.000000 1.570795 0.001728 1.569068
    1 -26.301091 -11.853098 -15.676260 -3.118602 -0.033940 -3.235774
  time 2
    0 0.000000 0.000000 0.000000 1.570795 0.001728 1.569068
    1 -26.082334 -11.575746 -15.625477 -3.076541 -0.026810 -3.255461
  time 3
    0 0.000000 0.000000 0.000000 1.570795 0.001728 1.569068
    1 -25.887016 -11.298394 -15.574694 -3.040696 -0.018708 -3.271311
  time 4
    0 0.000000 0.000000 0.000000 1.570795 0.001728 1.569068
    1 -25.746387 -11.021042 -15.516098 -3.020662 -0.012812 -3.277567
  time 5
    0 0.000000 0.000000 0.000000 1.570795 0.001728 1.569068
    1 -25.664353 -10.774940 -15.461409 -3.019659 -0.009851 -3.273563
  time 6
    0 0.000000 0.000000 0.000000 1.570795 0.001728 1.569068
    1 -25.609664 -10.583528 -15.402814 -3.032052 -0.008413 -3.263442
  time 7
    0 0.000000 0.000000 0.000000 1.570795 0.001728 1.569068
    1 -25.590132 -10.450712 -15.344218 -3.054197 -0.008449 -3.248565
  time 8
    0 0.000000 0.000000 0.000000 1.570795 0.001728 1.569068
    1 -25.609664 -10.376491 -15.285623 -3.082150 -0.009875 -3.230546
  time 9
    0 0.000000 0.000000 0.000000 1.570795 0.001728 1.569068
    1 -25.668259 -10.360865 -15.230934 -3.112386 -0.012644 -3.210637
  time 10
    0 0.000000 0.000000 0.000000 1.570795 0.001728 1.569068
    1 -25.773731 -10.411648 -15.176244 -3.141144 -0.016707 -3.190282
  time 11
    0 0.000000 0.000000 0.000000 1.570795 0.001728 1.569068
    1 -25.922173 -10.524933 -15.125462 -3.164530 -0.021956 -3.171096
  time 12
    0 0.000000 0.000000 0.000000 1.570795 0.001728 1.569068
    1 -26.109679 -10.724157 -15.082492 -3.182387 -0.027433 -3.154328
  time 13
    0 0.000000 0.000000 0.000000 1.570795 0.001728 1.569068
    1 -26.324529 -11.013229 -15.039521 -3.197010 -0.032167 -3.141482
  time 14
    0 0.000000 0.000000 0.000000 1.570795 0.001728 1.569068
    1 -26.551099 -11.353083 -15.004364 -3.208650 -0.036146 -3.134002
  time 15
    0 0.000000 0.000000 0.000000 1.570795 0.001728 1.569068
    1 -26.781574 -11.708562 -14.973113 -3.217651 -0.039429 -3.131666
  time 16
    0 0.000000 0.000000 0.000000 1.570795 0.001728 1.569068
    1 -27.004238 -12.056229 -14.953581 -3.224329 -0.042042 -3.132750
  time 17
    0 0.000000 0.000000 0.000000 1.570795 0.001728 1.569068
    1 -27.207369 -12.353113 -14.937956 -3.228948 -0.043983 -3.136449
  time 18
    0 0.000000 0.000000 0.000000 1.570795 0.001728 1.569068
    1 -27.379249 -12.567964 -14.934049 -3.231839 -0.045290 -3.141899
  time 19
    0 0.000000 0.000000 0.000000 1.570795 0.001728 1.569068
    1 -27.512066 -12.704687 -14.934049 -3.233330 -0.046141 -3.148378
  time 20
    0 0.000000 0.000000 0.000000 1.570795 0.001728 1.569068
    1 -27.598006 -12.794533 -14.934049 -3.233686 -0.046680 -3.154968
  time 21
    0 0.000000 0.000000 0.000000 1.570795 0.001728 1.569068
    1 -27.644882 -12.845316 -14.934049 -3.233093 -0.046980 -3.160918
  time 22
    0 0.000000 0.000000 0.000000 1.570795 0.001728 1.569068
    1 -27.656601 -12.857035 -14.934049 -3.231760 -0.047075 -3.165395
  time 23
    0 0.000000 0.000000 0.000000 1.570795 0.001728 1.569068
    1 -27.644882 -12.845316 -14.934049 -3.229859 -0.047004 -3.168204
  time 24
    0 0.000000 0.000000 0.000000 1.570795 0.001728 1.569068
    1 -27.613631 -12.814065 -14.934049 -3.227602 -0.046800 -3.169900
  time 25
    0 0.000000 0.000000 0.000000 1.570795 0.001728 1.569068
    1 -27.570661 -12.767189 -14.934049 -3.225148 -0.046512 -3.170679
  time 26
    0 0.000000 0.000000 0.000000 1.570795 0.001728 1.569068
    1 -27.519878 -12.712499 -14.934049 -3.222732 -0.046189 -3.170790
  time 27
    0 0.000000 0.000000 0.000000 1.570795 0.001728 1.569068
    1 -27.469095 -12.657810 -14.934049 -3.220502 -0.045853 -3.170484
  time 28
    0 0.000000 0.000000 0.000000 1.570795 0.001728 1.569068
    1 -27.422219 -12.610934 -14.934049 -3.218681 -0.045577 -3.169983
  time 29
    0 0.000000 0.000000 0.000000 1.570795 0.001728 1.569068
    1 -27.390968 -12.579683 -14.934049 -3.217453 -0.045374 -3.169483
  time 30
    0 0.000000 0.000000 0.000000 1.570795 0.001728 1.569068
    1 -27.379249 -12.567964 -14.934049 -3.216991 -0.045290 -3.169288
end
