// Created by Crowbar 0.74
version 1
nodes
  0 "v_weaponizer_root" -1
  1 "v_weaponizer_handle" 0
end
skeleton
  time 0
    0 0.000000 0.000000 0.000000 1.570795 0.001728 1.569068
    1 -27.379249 -12.567964 -14.934049 -3.216991 -0.045290 -3.169288
  time 1
    0 0.000000 0.000000 0.000000 1.570795 0.001728 1.569068
    1 -27.078459 -12.485930 -14.934049 -3.230915 -0.037572 -3.161864
  time 2
    0 0.000000 0.000000 0.000000 1.570795 0.001728 1.569068
    1 -26.898766 -12.388271 -14.934049 -3.240958 -0.032898 -3.158305
  time 3
    0 0.000000 0.000000 0.000000 1.570795 0.001728 1.569068
    1 -26.953455 -12.290612 -14.934049 -3.244390 -0.033809 -3.163226
  time 4
    0 0.000000 0.000000 0.000000 1.570795 0.001728 1.569068
    1 -27.078459 -12.208578 -14.934049 -3.245960 -0.036445 -3.171318
  time 5
    0 0.000000 0.000000 0.000000 1.570795 0.001728 1.569068
    1 -27.238620 -12.161701 -14.934049 -3.245525 -0.040160 -3.178826
  time 6
    0 0.000000 0.000000 0.000000 1.570795 0.001728 1.569068
    1 -27.390968 -12.169514 -14.934049 -3.242978 -0.044331 -3.182218
  time 7
    0 0.000000 0.000000 0.000000 1.570795 0.001728 1.569068
    1 -27.555036 -12.302331 -14.934049 -3.236814 -0.049604 -3.178770
  time 8
    0 0.000000 0.000000 0.000000 1.570795 0.001728 1.569068
    1 -27.742541 -12.556245 -14.934049 -3.227668 -0.055992 -3.171068
  time 9
    0 0.000000 0.000000 0.000000 1.570795 0.001728 1.569068
    1 -27.898796 -12.806252 -14.934049 -3.218338 -0.062080 -3.163143
  time 10
    0 0.000000 0.000000 0.000000 1.570795 0.001728 1.569068
    1 -27.973017 -12.939069 -14.934049 -3.211752 -0.066371 -3.159111
  time 11
    0 0.000000 0.000000 0.000000 1.570795 0.001728 1.569068
    1 -27.875358 -12.806252 -14.934049 -3.211475 -0.068156 -3.164088
  time 12
    0 0.000000 0.000000 0.000000 1.570795 0.001728 1.569068
    1 -27.664414 -12.532806 -14.934049 -3.214339 -0.067617 -3.173570
  time 13
    0 0.000000 0.000000 0.000000 1.570795 0.001728 1.569068
    1 -27.512066 -12.396083 -14.934049 -3.213190 -0.064513 -3.177130
  time 14
    0 0.000000 0.000000 0.000000 1.570795 0.001728 1.569068
    1 -27.449564 -12.462492 -14.934049 -3.202474 -0.053655 -3.167453
  time 15
    0 0.000000 0.000000 0.000000 1.570795 0.001728 1.569068
    1 -27.402687 -12.587496 -14.934049 -3.187719 -0.044331 -3.151881
  time 16
    0 0.000000 0.000000 0.000000 1.570795 0.001728 1.569068
    1 -27.371436 -12.747657 -14.934049 -3.178626 -0.045038 -3.142260
  time 17
    0 0.000000 0.000000 0.000000 1.570795 0.001728 1.569068
    1 -27.344092 -12.911724 -14.934049 -3.177332 -0.048382 -3.142566
  time 18
    0 0.000000 0.000000 0.000000 1.570795 0.001728 1.569068
    1 -27.316747 -13.060166 -14.934049 -3.179338 -0.052516 -3.147126
  time 19
    0 0.000000 0.000000 0.000000 1.570795 0.001728 1.569068
    1 -27.293309 -13.165638 -14.934049 -3.184327 -0.055573 -3.153188
  time 20
    0 0.000000 0.000000 0.000000 1.570795 0.001728 1.569068
    1 -27.258152 -13.204702 -14.934049 -3.191929 -0.055668 -3.157943
  time 21
    0 0.000000 0.000000 0.000000 1.570795 0.001728 1.569068
    1 -27.183931 -13.005477 -14.934049 -3.208769 -0.047795 -3.161280
  time 22
    0 0.000000 0.000000 0.000000 1.570795 0.001728 1.569068
    1 -27.105803 -12.614840 -14.934049 -3.230559 -0.035139 -3.163949
  time 23
    0 0.000000 0.000000 0.000000 1.570795 0.001728 1.569068
    1 -27.121429 -12.325769 -14.934049 -3.240562 -0.028248 -3.164756
  time 24
    0 0.000000 0.000000 0.000000 1.570795 0.001728 1.569068
    1 -27.293309 -12.212484 -14.934049 -3.231350 -0.031172 -3.162615
  time 25
    0 0.000000 0.000000 0.000000 1.570795 0.001728 1.569068
    1 -27.558942 -12.153889 -14.934049 -3.212451 -0.038578 -3.158722
  time 26
    0 0.000000 0.000000 0.000000 1.570795 0.001728 1.569068
    1 -27.805043 -12.146076 -14.934049 -3.193143 -0.046680 -3.155135
  time 27
    0 0.000000 0.000000 0.000000 1.570795 0.001728 1.569068
    1 -27.933953 -12.169514 -14.934049 -3.182413 -0.051845 -3.153911
  time 28
    0 0.000000 0.000000 0.000000 1.570795 0.001728 1.569068
    1 -27.848013 -12.259361 -14.934049 -3.187362 -0.051702 -3.157081
  time 29
    0 0.000000 0.000000 0.000000 1.570795 0.001728 1.569068
    1 -27.613631 -12.411709 -14.934049 -3.202157 -0.048502 -3.163171
  time 30
    0 0.000000 0.000000 0.000000 1.570795 0.001728 1.569068
    1 -27.379249 -12.567964 -14.934049 -3.216991 -0.045290 -3.169288
end
