// Created by Crowbar 0.74
version 1
nodes
  0 "v_weaponizer_root" -1
  1 "v_weaponizer_handle" 0
end
skeleton
  time 0
    0 0.000000 0.000000 0.000000 1.570795 0.001728 1.569068
    1 -27.379249 -12.567964 -14.934049 -3.216991 -0.045290 -3.169288
  time 1
    0 0.000000 0.000000 0.000000 1.570795 0.001728 1.569068
    1 -27.379249 -12.567964 -14.934049 -3.451093 -0.120014 -3.317053
  time 2
    0 0.000000 0.000000 0.000000 1.570795 0.001728 1.569068
    1 -27.379249 -12.567964 -14.934049 -3.574056 -0.171799 -3.393799
  time 3
    0 0.000000 0.000000 0.000000 1.570795 0.001728 1.569068
    1 -27.379249 -12.567964 -14.934049 -3.458351 -0.185941 -3.318555
  time 4
    0 0.000000 0.000000 0.000000 1.570795 0.001728 1.569068
    1 -27.379249 -12.567964 -14.934049 -3.256598 -0.190004 -3.188669
  time 5
    0 0.000000 0.000000 0.000000 1.570795 0.001728 1.569068
    1 -27.379249 -12.567964 -14.934049 -3.061139 -0.180152 -3.062066
  time 6
    0 0.000000 0.000000 0.000000 1.570795 0.001728 1.569068
    1 -27.379249 -12.567964 -14.934049 -2.961523 -0.152264 -2.994857
  time 7
    0 0.000000 0.000000 0.000000 1.570795 0.001728 1.569068
    1 -27.379249 -12.567964 -14.934049 -3.071830 -0.078571 -3.055225
  time 8
    0 0.000000 0.000000 0.000000 1.570795 0.001728 1.569068
    1 -27.379249 -12.567964 -14.934049 -3.298382 0.024185 -3.187335
  time 9
    0 0.000000 0.000000 0.000000 1.570795 0.001728 1.569068
    1 -27.379249 -12.567964 -14.934049 -3.425938 0.095637 -3.265138
  time 10
    0 0.000000 0.000000 0.000000 1.570795 0.001728 1.569068
    1 -27.379249 -12.567964 -14.934049 -3.390673 0.123861 -3.249955
  time 11
    0 0.000000 0.000000 0.000000 1.570795 0.001728 1.569068
    1 -27.379249 -12.567964 -14.934049 -3.297405 0.139237 -3.201905
  time 12
    0 0.000000 0.000000 0.000000 1.570795 0.001728 1.569068
    1 -27.379249 -12.567964 -14.934049 -3.179378 0.143983 -3.140842
  time 13
    0 0.000000 0.000000 0.000000 1.570795 0.001728 1.569068
    1 -27.379249 -12.567964 -14.934049 -3.070629 0.140112 -3.086814
  time 14
    0 0.000000 0.000000 0.000000 1.570795 0.001728 1.569068
    1 -27.379249 -12.567964 -14.934049 -3.005537 0.129781 -3.060147
  time 15
    0 0.000000 0.000000 0.000000 1.570795 0.001728 1.569068
    1 -27.379249 -12.567964 -14.934049 -3.011292 0.095853 -3.090873
  time 16
    0 0.000000 0.000000 0.000000 1.570795 0.001728 1.569068
    1 -27.379249 -12.567964 -14.934049 -3.074865 0.039897 -3.160140
  time 17
    0 0.000000 0.000000 0.000000 1.570795 0.001728 1.569068
    1 -27.379249 -12.567964 -14.934049 -3.167869 -0.007550 -3.213890
  time 18
    0 0.000000 0.000000 0.000000 1.570795 0.001728 1.569068
    1 -27.379249 -12.567964 -14.934049 -3.255819 -0.037835 -3.237832
  time 19
    0 0.000000 0.000000 0.000000 1.570795 0.001728 1.569068
    1 -27.379249 -12.567964 -14.934049 -3.320673 -0.059863 -3.253125
  time 20
    0 0.000000 0.000000 0.000000 1.570795 0.001728 1.569068
    1 -27.379249 -12.567964 -14.934049 -3.360424 -0.070350 -3.259910
  time 21
    0 0.000000 0.000000 0.000000 1.570795 0.001728 1.569068
    1 -27.379249 -12.567964 -14.934049 -3.373648 -0.071093 -3.258381
  time 22
    0 0.000000 0.000000 0.000000 1.570795 0.001728 1.569068
    1 -27.379249 -12.567964 -14.934049 -3.343663 -0.067102 -3.243004
  time 23
    0 0.000000 0.000000 0.000000 1.570795 0.001728 1.569068
    1 -27.379249 -12.567964 -14.934049 -3.277213 -0.060282 -3.215725
  time 24
    0 0.000000 0.000000 0.000000 1.570795 0.001728 1.569068
    1 -27.379249 -12.567964 -14.934049 -3.206024 -0.052409 -3.187335
  time 25
    0 0.000000 0.000000 0.000000 1.570795 0.001728 1.569068
    1 -27.379249 -12.567964 -14.934049 -3.162485 -0.045326 -3.168788
  time 26
    0 0.000000 0.000000 0.000000 1.570795 0.001728 1.569068
    1 -27.379249 -12.567964 -14.934049 -3.156044 -0.040903 -3.162531
  time 27
    0 0.000000 0.000000 0.000000 1.570795 0.001728 1.569068
    1 -27.379249 -12.567964 -14.934049 -3.168041 -0.040172 -3.161864
  time 28
    0 0.000000 0.000000 0.000000 1.570795 0.001728 1.569068
    1 -27.379249 -12.567964 -14.934049 -3.188761 -0.041850 -3.164366
  time 29
    0 0.000000 0.000000 0.000000 1.570795 0.001728 1.569068
    1 -27.379249 -12.567964 -14.934049 -3.208294 -0.044139 -3.167648
  time 30
    0 0.000000 0.000000 0.000000 1.570795 0.001728 1.569068
    1 -27.379249 -12.567964 -14.934049 -3.216991 -0.045290 -3.169288
end
