// Created by Crowbar 0.74
version 1
nodes
  0 "v_weaponizer_root" -1
  1 "v_weaponizer_handle" 0
end
skeleton
  time 0
    0 0.000000 0.000000 0.000000 1.570795 0.001728 1.569068
    1 -11.843619 -22.673741 -14.934049 -3.206539 -0.059336 -2.230479
  time 1
    0 0.000000 0.000000 0.000000 1.570795 0.001728 1.569068
    1 -12.703020 -22.044815 -14.934049 -3.206631 -0.059192 -2.295129
  time 2
    0 0.000000 0.000000 0.000000 1.570795 0.001728 1.569068
    1 -13.632736 -21.365107 -14.934049 -3.206921 -0.058784 -2.363728
  time 3
    0 0.000000 0.000000 0.000000 1.570795 0.001728 1.569068
    1 -14.621047 -20.642429 -14.934049 -3.207370 -0.058161 -2.435664
  time 4
    0 0.000000 0.000000 0.000000 1.570795 0.001728 1.569068
    1 -15.660141 -19.884593 -14.934049 -3.207964 -0.057322 -2.509936
  time 5
    0 0.000000 0.000000 0.000000 1.570795 0.001728 1.569068
    1 -16.722674 -19.111132 -14.934049 -3.208677 -0.056316 -2.584903
  time 6
    0 0.000000 0.000000 0.000000 1.570795 0.001728 1.569068
    1 -17.808644 -18.329858 -14.934049 -3.209482 -0.055177 -2.660064
  time 7
    0 0.000000 0.000000 0.000000 1.570795 0.001728 1.569068
    1 -18.902428 -17.548584 -14.934049 -3.210366 -0.053919 -2.734308
  time 8
    0 0.000000 0.000000 0.000000 1.570795 0.001728 1.569068
    1 -19.980586 -16.786842 -14.934049 -3.211316 -0.052600 -2.806077
  time 9
    0 0.000000 0.000000 0.000000 1.570795 0.001728 1.569068
    1 -21.039212 -16.048539 -14.934049 -3.212280 -0.051222 -2.874843
  time 10
    0 0.000000 0.000000 0.000000 1.570795 0.001728 1.569068
    1 -22.062680 -15.349299 -14.934049 -3.213270 -0.049832 -2.939494
  time 11
    0 0.000000 0.000000 0.000000 1.570795 0.001728 1.569068
    1 -23.031460 -14.704748 -14.934049 -3.214246 -0.048466 -2.998500
  time 12
    0 0.000000 0.000000 0.000000 1.570795 0.001728 1.569068
    1 -23.937738 -14.122699 -14.934049 -3.215183 -0.047135 -3.051277
  time 13
    0 0.000000 0.000000 0.000000 1.570795 0.001728 1.569068
    1 -24.773701 -13.610964 -14.934049 -3.216067 -0.045889 -3.096685
  time 14
    0 0.000000 0.000000 0.000000 1.570795 0.001728 1.569068
    1 -25.512004 -13.189076 -14.934049 -3.216886 -0.044750 -3.133418
  time 15
    0 0.000000 0.000000 0.000000 1.570795 0.001728 1.569068
    1 -26.148743 -12.864848 -14.934049 -3.217585 -0.043744 -3.160585
  time 16
    0 0.000000 0.000000 0.000000 1.570795 0.001728 1.569068
    1 -26.668290 -12.649997 -14.934049 -3.218179 -0.042905 -3.178520
  time 17
    0 0.000000 0.000000 0.000000 1.570795 0.001728 1.569068
    1 -27.055020 -12.556245 -14.934049 -3.218628 -0.042282 -3.188975
  time 18
    0 0.000000 0.000000 0.000000 1.570795 0.001728 1.569068
    1 -27.297215 -12.540619 -14.934049 -3.218918 -0.041874 -3.193341
  time 19
    0 0.000000 0.000000 0.000000 1.570795 0.001728 1.569068
    1 -27.379249 -12.548432 -14.934049 -3.219024 -0.041730 -3.192868
  time 20
    0 0.000000 0.000000 0.000000 1.570795 0.001728 1.569068
    1 -27.379249 -12.579683 -14.934049 -3.218931 -0.041886 -3.188920
  time 21
    0 0.000000 0.000000 0.000000 1.570795 0.001728 1.569068
    1 -27.379249 -12.614840 -14.934049 -3.218720 -0.042258 -3.182747
  time 22
    0 0.000000 0.000000 0.000000 1.570795 0.001728 1.569068
    1 -27.379249 -12.657810 -14.934049 -3.218443 -0.042749 -3.175656
  time 23
    0 0.000000 0.000000 0.000000 1.570795 0.001728 1.569068
    1 -27.379249 -12.689061 -14.934049 -3.218166 -0.043228 -3.169010
  time 24
    0 0.000000 0.000000 0.000000 1.570795 0.001728 1.569068
    1 -27.379249 -12.708593 -14.934049 -3.217955 -0.043612 -3.164061
  time 25
    0 0.000000 0.000000 0.000000 1.570795 0.001728 1.569068
    1 -27.379249 -12.708593 -14.934049 -3.217862 -0.043756 -3.162114
  time 26
    0 0.000000 0.000000 0.000000 1.570795 0.001728 1.569068
    1 -27.379249 -12.681248 -14.934049 -3.217783 -0.043912 -3.162865
  time 27
    0 0.000000 0.000000 0.000000 1.570795 0.001728 1.569068
    1 -27.379249 -12.646091 -14.934049 -3.217559 -0.044295 -3.164644
  time 28
    0 0.000000 0.000000 0.000000 1.570795 0.001728 1.569068
    1 -27.379249 -12.607027 -14.934049 -3.217295 -0.044750 -3.166758
  time 29
    0 0.000000 0.000000 0.000000 1.570795 0.001728 1.569068
    1 -27.379249 -12.579683 -14.934049 -3.217084 -0.045134 -3.168537
  time 30
    0 0.000000 0.000000 0.000000 1.570795 0.001728 1.569068
    1 -27.379249 -12.567964 -14.934049 -3.216991 -0.045290 -3.169288
end
