// Created by Crowbar 0.74
version 1
nodes
  0 "v_weaponizer_root" -1
  1 "v_weaponizer_handle" 0
end
skeleton
  time 0
    0 0.000000 0.000000 0.000000 1.570795 0.001728 1.569068
    1 -26.359687 -13.150013 -14.934049 -3.185370 -0.043660 -3.131916
  time 1
    0 0.000000 0.000000 0.000000 1.570795 0.001728 1.569068
    1 -26.445627 -13.107043 -14.934049 -3.185356 -0.043744 -3.138840
  time 2
    0 0.000000 0.000000 0.000000 1.570795 0.001728 1.569068
    1 -26.543286 -13.060166 -14.934049 -3.185317 -0.043959 -3.145319
  time 3
    0 0.000000 0.000000 0.000000 1.570795 0.001728 1.569068
    1 -26.640945 -13.013290 -14.934049 -3.185264 -0.044271 -3.151353
  time 4
    0 0.000000 0.000000 0.000000 1.570795 0.001728 1.569068
    1 -26.746417 -12.962507 -14.934049 -3.185211 -0.044619 -3.156747
  time 5
    0 0.000000 0.000000 0.000000 1.570795 0.001728 1.569068
    1 -26.847983 -12.907818 -14.934049 -3.185145 -0.044978 -3.161335
  time 6
    0 0.000000 0.000000 0.000000 1.570795 0.001728 1.569068
    1 -26.949548 -12.857035 -14.934049 -3.185092 -0.045278 -3.164978
  time 7
    0 0.000000 0.000000 0.000000 1.570795 0.001728 1.569068
    1 -27.043301 -12.806252 -14.934049 -3.185066 -0.045505 -3.167592
  time 8
    0 0.000000 0.000000 0.000000 1.570795 0.001728 1.569068
    1 -27.129241 -12.759376 -14.934049 -3.185040 -0.045589 -3.168955
  time 9
    0 0.000000 0.000000 0.000000 1.570795 0.001728 1.569068
    1 -27.207369 -12.716406 -14.934049 -3.185238 -0.045577 -3.168955
  time 10
    0 0.000000 0.000000 0.000000 1.570795 0.001728 1.569068
    1 -27.265964 -12.677342 -14.934049 -3.185792 -0.045577 -3.167787
  time 11
    0 0.000000 0.000000 0.000000 1.570795 0.001728 1.569068
    1 -27.308934 -12.642185 -14.934049 -3.186663 -0.045565 -3.165757
  time 12
    0 0.000000 0.000000 0.000000 1.570795 0.001728 1.569068
    1 -27.332373 -12.614840 -14.934049 -3.187824 -0.045553 -3.163171
  time 13
    0 0.000000 0.000000 0.000000 1.570795 0.001728 1.569068
    1 -27.347998 -12.595308 -14.934049 -3.189250 -0.045541 -3.160334
  time 14
    0 0.000000 0.000000 0.000000 1.570795 0.001728 1.569068
    1 -27.355811 -12.579683 -14.934049 -3.190873 -0.045529 -3.157582
  time 15
    0 0.000000 0.000000 0.000000 1.570795 0.001728 1.569068
    1 -27.363623 -12.575776 -14.934049 -3.192694 -0.045517 -3.155218
  time 16
    0 0.000000 0.000000 0.000000 1.570795 0.001728 1.569068
    1 -27.371436 -12.567964 -14.934049 -3.194648 -0.045494 -3.153577
  time 17
    0 0.000000 0.000000 0.000000 1.570795 0.001728 1.569068
    1 -27.375343 -12.564057 -14.934049 -3.196706 -0.045482 -3.152966
  time 18
    0 0.000000 0.000000 0.000000 1.570795 0.001728 1.569068
    1 -27.379249 -12.560151 -14.934049 -3.198844 -0.045458 -3.153244
  time 19
    0 0.000000 0.000000 0.000000 1.570795 0.001728 1.569068
    1 -27.383155 -12.560151 -14.934049 -3.201022 -0.045434 -3.153995
  time 20
    0 0.000000 0.000000 0.000000 1.570795 0.001728 1.569068
    1 -27.387062 -12.560151 -14.934049 -3.203187 -0.045422 -3.155162
  time 21
    0 0.000000 0.000000 0.000000 1.570795 0.001728 1.569068
    1 -27.387062 -12.560151 -14.934049 -3.205325 -0.045398 -3.156636
  time 22
    0 0.000000 0.000000 0.000000 1.570795 0.001728 1.569068
    1 -27.387062 -12.560151 -14.934049 -3.207397 -0.045386 -3.158360
  time 23
    0 0.000000 0.000000 0.000000 1.570795 0.001728 1.569068
    1 -27.387062 -12.560151 -14.934049 -3.209350 -0.045362 -3.160168
  time 24
    0 0.000000 0.000000 0.000000 1.570795 0.001728 1.569068
    1 -27.387062 -12.560151 -14.934049 -3.211158 -0.045350 -3.162058
  time 25
    0 0.000000 0.000000 0.000000 1.570795 0.001728 1.569068
    1 -27.383155 -12.560151 -14.934049 -3.212794 -0.045338 -3.163894
  time 26
    0 0.000000 0.000000 0.000000 1.570795 0.001728 1.569068
    1 -27.383155 -12.564057 -14.934049 -3.214207 -0.045326 -3.165590
  time 27
    0 0.000000 0.000000 0.000000 1.570795 0.001728 1.569068
    1 -27.383155 -12.564057 -14.934049 -3.215368 -0.045314 -3.167091
  time 28
    0 0.000000 0.000000 0.000000 1.570795 0.001728 1.569068
    1 -27.383155 -12.564057 -14.934049 -3.216252 -0.045302 -3.168259
  time 29
    0 0.000000 0.000000 0.000000 1.570795 0.001728 1.569068
    1 -27.379249 -12.567964 -14.934049 -3.216807 -0.045302 -3.169010
  time 30
    0 0.000000 0.000000 0.000000 1.570795 0.001728 1.569068
    1 -27.379249 -12.567964 -14.934049 -3.216991 -0.045290 -3.169288
end
