// Created by Crowbar 0.74
version 1
nodes
  0 "v_weaponizer_root" -1
  1 "v_weaponizer_handle" 0
end
skeleton
  time 0
    0 0.000000 0.000000 0.000000 1.570795 0.001728 1.569068
    1 -27.375000 -12.562500 -14.929688 3.066187 -0.045354 3.113890
  time 1
    0 0.000000 0.000000 0.000000 1.570795 0.001728 1.569068
    1 -27.375000 -12.562500 -14.929688 3.066187 -0.045354 3.113890
  time 2
    0 0.000000 0.000000 0.000000 1.570795 0.001728 1.569068
    1 -27.375000 -12.562500 -14.929688 3.066187 -0.045354 3.113890
  time 3
    0 0.000000 0.000000 0.000000 1.570795 0.001728 1.569068
    1 -27.375000 -12.562500 -14.929688 3.066187 -0.045354 3.113890
  time 4
    0 0.000000 0.000000 0.000000 1.570795 0.001728 1.569068
    1 -27.375000 -12.562500 -14.929688 3.066187 -0.045354 3.113890
  time 5
    0 0.000000 0.000000 0.000000 1.570795 0.001728 1.569068
    1 -27.375000 -12.562500 -14.929688 3.066187 -0.045354 3.113890
  time 6
    0 0.000000 0.000000 0.000000 1.570795 0.001728 1.569068
    1 -27.375000 -12.562500 -14.929688 3.066187 -0.045354 3.113890
  time 7
    0 0.000000 0.000000 0.000000 1.570795 0.001728 1.569068
    1 -27.375000 -12.562500 -14.929688 3.066187 -0.045354 3.113890
  time 8
    0 0.000000 0.000000 0.000000 1.570795 0.001728 1.569068
    1 -27.375000 -12.562500 -14.929688 3.066187 -0.045354 3.113890
  time 9
    0 0.000000 0.000000 0.000000 1.570795 0.001728 1.569068
    1 -27.375000 -12.562500 -14.929688 3.066187 -0.045354 3.113890
  time 10
    0 0.000000 0.000000 0.000000 1.570795 0.001728 1.569068
    1 -27.375000 -12.562500 -14.929688 3.066187 -0.045354 3.113890
  time 11
    0 0.000000 0.000000 0.000000 1.570795 0.001728 1.569068
    1 -27.375000 -12.562500 -14.929688 3.066187 -0.045354 3.113890
  time 12
    0 0.000000 0.000000 0.000000 1.570795 0.001728 1.569068
    1 -27.375000 -12.562500 -14.929688 3.066187 -0.045354 3.113890
  time 13
    0 0.000000 0.000000 0.000000 1.570795 0.001728 1.569068
    1 -27.375000 -12.562500 -14.929688 3.066187 -0.045354 3.113890
  time 14
    0 0.000000 0.000000 0.000000 1.570795 0.001728 1.569068
    1 -27.375000 -12.562500 -14.929688 3.066187 -0.045354 3.113890
  time 15
    0 0.000000 0.000000 0.000000 1.570795 0.001728 1.569068
    1 -27.375000 -12.562500 -14.929688 3.066187 -0.045354 3.113890
  time 16
    0 0.000000 0.000000 0.000000 1.570795 0.001728 1.569068
    1 -27.375000 -12.562500 -14.929688 3.066187 -0.045354 3.113890
  time 17
    0 0.000000 0.000000 0.000000 1.570795 0.001728 1.569068
    1 -27.375000 -12.562500 -14.929688 3.066187 -0.045354 3.113890
  time 18
    0 0.000000 0.000000 0.000000 1.570795 0.001728 1.569068
    1 -27.375000 -12.562500 -14.929688 3.066187 -0.045354 3.113890
  time 19
    0 0.000000 0.000000 0.000000 1.570795 0.001728 1.569068
    1 -27.375000 -12.562500 -14.929688 3.066187 -0.045354 3.113890
  time 20
    0 0.000000 0.000000 0.000000 1.570795 0.001728 1.569068
    1 -27.375000 -12.562500 -14.929688 3.066187 -0.045354 3.113890
  time 21
    0 0.000000 0.000000 0.000000 1.570795 0.001728 1.569068
    1 -27.375000 -12.562500 -14.929688 3.066187 -0.045354 3.113890
  time 22
    0 0.000000 0.000000 0.000000 1.570795 0.001728 1.569068
    1 -27.375000 -12.562500 -14.929688 3.066187 -0.045354 3.113890
  time 23
    0 0.000000 0.000000 0.000000 1.570795 0.001728 1.569068
    1 -27.375000 -12.562500 -14.929688 3.066187 -0.045354 3.113890
  time 24
    0 0.000000 0.000000 0.000000 1.570795 0.001728 1.569068
    1 -27.375000 -12.562500 -14.929688 3.066187 -0.045354 3.113890
  time 25
    0 0.000000 0.000000 0.000000 1.570795 0.001728 1.569068
    1 -27.375000 -12.562500 -14.929688 3.066187 -0.045354 3.113890
  time 26
    0 0.000000 0.000000 0.000000 1.570795 0.001728 1.569068
    1 -27.375000 -12.562500 -14.929688 3.066187 -0.045354 3.113890
  time 27
    0 0.000000 0.000000 0.000000 1.570795 0.001728 1.569068
    1 -27.375000 -12.562500 -14.929688 3.066187 -0.045354 3.113890
  time 28
    0 0.000000 0.000000 0.000000 1.570795 0.001728 1.569068
    1 -27.375000 -12.562500 -14.929688 3.066187 -0.045354 3.113890
  time 29
    0 0.000000 0.000000 0.000000 1.570795 0.001728 1.569068
    1 -27.375000 -12.562500 -14.929688 3.066187 -0.045354 3.113890
end
